<svg width="1983" height="1005" viewBox="0 0 1983 1005" fill="none" xmlns="http://www.w3.org/2000/svg">
<g clip-path="url(#clip0_2964_47702)">
<g clip-path="url(#clip1_2964_47702)">
<path d="M0.533203 398.848C0.533203 398.848 172.399 398.848 617.104 398.848" stroke="#F04438" stroke-width="1.18004" stroke-dasharray="2.36 2.36"/>
<path d="M0.533203 238.367H532.731" stroke="#F04438" stroke-width="1.18004" stroke-dasharray="2.36 2.36"/>
<path d="M0.533203 89.6816H461.929" stroke="#F04438" stroke-width="1.18004" stroke-dasharray="2.36 2.36"/>
<path d="M67.7949 559.332H532.73" stroke="#F04438" stroke-width="1.18004" stroke-dasharray="2.36 2.36"/>
<path d="M144.498 636.042V-231.287" stroke="#F04438" stroke-width="1.18004" stroke-dasharray="2.36 2.36"/>
<path d="M434.785 -86.1445V116.822" stroke="#F04438" stroke-width="1.18004" stroke-dasharray="2.36 2.36"/>
<path d="M363.984 -119.186C363.984 -119.186 363.984 53.5486 363.984 149.863" stroke="#F04438" stroke-width="1.18004" stroke-dasharray="2.36 2.36"/>
<path d="M465.469 191.166V597.099" stroke="#F04438" stroke-width="1.18004" stroke-dasharray="2.36 2.36"/>
<path d="M144.497 230.699C222.377 230.699 285.512 167.565 285.512 89.6846C285.512 11.8043 222.377 -51.3301 144.497 -51.3301C66.6168 -51.3301 3.48242 11.8043 3.48242 89.6846C3.48242 167.565 66.6168 230.699 144.497 230.699Z" stroke="#F04438" stroke-width="1.18004" stroke-dasharray="2.36 2.36"/>
<path d="M363.986 89.6828C403.089 89.6828 434.788 57.9835 434.788 18.8805C434.788 -20.2226 403.089 -51.9219 363.986 -51.9219C324.883 -51.9219 293.184 -20.2226 293.184 18.8805C293.184 57.9835 324.883 89.6828 363.986 89.6828Z" stroke="#F04438" stroke-width="1.18004" stroke-dasharray="2.36 2.36"/>
<path d="M144.497 559.339C186.859 559.339 221.2 524.998 221.2 482.636C221.2 440.274 186.859 405.934 144.497 405.934C102.136 405.934 67.7949 440.274 67.7949 482.636C67.7949 524.998 102.136 559.339 144.497 559.339Z" stroke="#F04438" stroke-width="1.18004" stroke-dasharray="2.36 2.36"/>
<g opacity="0.25">
<path d="M144.498 -51.9238C222.704 -51.9238 286.103 11.4749 286.103 89.6809C286.103 167.887 222.704 231.286 144.498 231.286V228.925C221.401 228.925 283.743 166.584 283.743 89.6809C283.743 12.7777 221.401 -49.5638 144.498 -49.5638V-51.9238Z" fill="url(#paint0_linear_2964_47702)"/>
<path d="M144.498 -42.4824C217.491 -42.4824 276.662 16.6895 276.662 89.682C276.662 162.674 217.491 221.846 144.498 221.846V219.486C216.187 219.486 274.302 161.371 274.302 89.682C274.302 17.9934 216.187 -40.1223 144.498 -40.1223V-42.4824Z" fill="url(#paint1_linear_2964_47702)"/>
<path d="M144.498 -33.043C212.277 -33.043 267.222 21.902 267.222 89.6811C267.222 157.46 212.277 212.405 144.498 212.405V210.045C210.973 210.045 264.862 156.156 264.862 89.6811C264.862 23.206 210.973 -30.6829 144.498 -30.6829V-33.043Z" fill="url(#paint2_linear_2964_47702)"/>
<path d="M144.498 -23.6016C207.063 -23.6016 257.782 27.1177 257.782 89.6822C257.782 152.247 207.063 202.966 144.498 202.966V200.606C205.76 200.606 255.422 150.944 255.422 89.6822C255.422 28.4205 205.76 -21.2415 144.498 -21.2415V-23.6016Z" fill="url(#paint3_linear_2964_47702)"/>
<path d="M144.498 193.523C201.849 193.523 248.341 147.03 248.341 89.6794C248.341 32.3283 201.849 -14.1641 144.498 -14.1641V-11.804C200.545 -11.804 245.981 33.6322 245.981 89.6794C245.981 145.727 200.545 191.163 144.498 191.163V193.523Z" fill="url(#paint4_linear_2964_47702)"/>
<path d="M144.498 184.084C196.636 184.084 238.901 141.818 238.901 89.6805C238.901 37.5428 196.636 -4.72266 144.498 -4.72266V-2.36258C195.332 -2.36258 236.541 38.8468 236.541 89.6805C236.541 140.514 195.332 181.724 144.498 181.724V184.084Z" fill="url(#paint5_linear_2964_47702)"/>
<path d="M144.498 174.642C191.421 174.642 229.461 136.604 229.461 89.6796C229.461 42.7565 191.421 4.7168 144.498 4.7168V7.07688C190.118 7.07688 227.101 44.0593 227.101 89.6796C227.101 135.3 190.118 172.282 144.498 172.282V174.642Z" fill="url(#paint6_linear_2964_47702)"/>
<path d="M144.498 165.203C186.208 165.203 220.021 131.39 220.021 89.6807C220.021 47.971 186.208 14.1582 144.498 14.1582V16.5183C184.905 16.5183 217.66 49.2738 217.66 89.6807C217.66 130.088 184.905 162.843 144.498 162.843V165.203Z" fill="url(#paint7_linear_2964_47702)"/>
<path d="M144.498 155.764C180.994 155.764 210.58 126.178 210.58 89.6818C210.58 53.1856 180.994 23.5996 144.498 23.5996V25.9597C179.69 25.9597 208.22 54.4895 208.22 89.6818C208.22 124.874 179.69 153.404 144.498 153.404V155.764Z" fill="url(#paint8_linear_2964_47702)"/>
<path d="M144.498 146.323C175.781 146.323 201.14 120.964 201.14 89.6809C201.14 58.3981 175.781 33.0391 144.498 33.0391V35.3991C174.477 35.3991 198.78 59.702 198.78 89.6809C198.78 119.66 174.477 143.963 144.498 143.963V146.323Z" fill="url(#paint9_linear_2964_47702)"/>
<path d="M144.498 136.884C170.566 136.884 191.7 115.75 191.7 89.682C191.7 63.6138 170.566 42.4805 144.498 42.4805V44.8405C169.264 44.8405 189.34 64.9166 189.34 89.682C189.34 114.448 169.264 134.524 144.498 134.524V136.884Z" fill="url(#paint10_linear_2964_47702)"/>
<path d="M144.498 127.44C165.353 127.44 182.259 110.534 182.259 89.6792C182.259 68.8244 165.353 51.918 144.498 51.918V54.278C164.05 54.278 179.899 70.1272 179.899 89.6792C179.899 109.231 164.05 125.08 144.498 125.08V127.44Z" fill="url(#paint11_linear_2964_47702)"/>
<path d="M144.498 118.001C160.139 118.001 172.819 105.322 172.819 89.6803C172.819 74.0389 160.139 61.3594 144.498 61.3594V63.7195C158.836 63.7195 170.459 75.3428 170.459 89.6803C170.459 104.018 158.836 115.641 144.498 115.641V118.001Z" fill="url(#paint12_linear_2964_47702)"/>
<path d="M144.498 108.562C154.926 108.562 163.379 100.109 163.379 89.6814C163.379 79.2534 154.926 70.8008 144.498 70.8008V73.1609C153.622 73.1609 161.019 80.5573 161.019 89.6814C161.019 98.8055 153.622 106.202 144.498 106.202V108.562Z" fill="url(#paint13_linear_2964_47702)"/>
<path d="M144.498 99.1209C149.711 99.1209 153.938 94.894 153.938 89.6805C153.938 84.4671 149.711 80.2402 144.498 80.2402V82.6003C148.409 82.6003 151.578 85.7699 151.578 89.6805C151.578 93.5912 148.409 96.7608 144.498 96.7608V99.1209Z" fill="url(#paint14_linear_2964_47702)"/>
</g>
<g opacity="0.25">
<path d="M144.496 4.7168V7.07688H-0.648438L-0.648436 4.7168H144.496Z" fill="url(#paint15_linear_2964_47702)"/>
<path d="M144.496 14.1582V16.5183H-0.648438V14.1582H144.496Z" fill="url(#paint16_linear_2964_47702)"/>
<path d="M144.496 23.5996V25.9597H-0.648438V23.5996H144.496Z" fill="url(#paint17_linear_2964_47702)"/>
<path d="M144.496 33.0391V35.3991H-0.648438V33.0391H144.496Z" fill="url(#paint18_linear_2964_47702)"/>
<path d="M144.496 42.4805V44.8405H-0.648438V42.4805H144.496Z" fill="url(#paint19_linear_2964_47702)"/>
<path d="M144.496 51.918V54.278H-0.648438V51.918H144.496Z" fill="url(#paint20_linear_2964_47702)"/>
<path d="M144.496 61.3594V63.7195H-0.648438V61.3594H144.496Z" fill="url(#paint21_linear_2964_47702)"/>
<path d="M144.496 70.8008V73.1609H-0.648438V70.8008H144.496Z" fill="url(#paint22_linear_2964_47702)"/>
<path d="M144.496 80.2402V82.6003H-0.648438V80.2402H144.496Z" fill="url(#paint23_linear_2964_47702)"/>
</g>
<path opacity="0.95" d="M293.184 18.8805C293.184 57.9834 324.883 89.6828 363.986 89.6828V-51.9219C324.883 -51.9219 293.184 -20.2225 293.184 18.8805Z" fill="url(#paint24_linear_2964_47702)"/>
<path d="M221.201 482.636C221.201 440.274 186.859 405.934 144.498 405.934V559.339C186.859 559.339 221.201 524.997 221.201 482.636Z" fill="#222125"/>
<g opacity="0.95">
<path d="M304.775 240.727C392.105 240.727 462.901 311.523 462.901 398.853C462.901 486.182 392.105 556.978 304.775 556.978V559.338C393.409 559.338 465.261 487.486 465.261 398.853C465.261 310.219 393.409 238.367 304.775 238.367V240.727Z" fill="url(#paint25_linear_2964_47702)"/>
<path d="M304.775 247.809C388.196 247.809 455.82 315.434 455.82 398.854C455.82 482.273 388.196 549.899 304.775 549.899V547.539C386.892 547.539 453.46 480.97 453.46 398.854C453.46 316.737 386.892 250.169 304.775 250.169V247.809Z" fill="url(#paint26_linear_2964_47702)"/>
<path d="M304.775 257.248C382.981 257.248 446.38 320.647 446.38 398.853C446.38 477.059 382.981 540.457 304.775 540.457V538.097C381.679 538.097 444.02 475.756 444.02 398.853C444.02 321.95 381.679 259.608 304.775 259.608V257.248Z" fill="url(#paint27_linear_2964_47702)"/>
<path d="M304.775 266.689C377.768 266.689 436.94 325.861 436.94 398.854C436.94 471.846 377.768 531.018 304.775 531.018V528.658C376.465 528.658 434.58 470.542 434.58 398.854C434.58 327.165 376.465 269.05 304.775 269.05V266.689Z" fill="url(#paint28_linear_2964_47702)"/>
<path d="M304.775 276.127C372.554 276.127 427.499 331.072 427.499 398.851C427.499 466.63 372.554 521.575 304.775 521.575V519.215C371.251 519.215 425.139 465.326 425.139 398.851C425.139 332.376 371.251 278.487 304.775 278.487V276.127Z" fill="url(#paint29_linear_2964_47702)"/>
<path d="M304.775 285.568C367.341 285.568 418.059 336.288 418.059 398.852C418.059 461.417 367.341 512.136 304.775 512.136V509.776C366.037 509.776 415.699 460.114 415.699 398.852C415.699 337.59 366.037 287.928 304.775 287.928V285.568Z" fill="url(#paint30_linear_2964_47702)"/>
<path d="M304.775 502.695C362.126 502.695 408.619 456.202 408.619 398.851C408.619 341.5 362.126 295.008 304.775 295.008V297.368C360.824 297.368 406.259 342.804 406.259 398.851C406.259 454.898 360.824 500.335 304.775 500.335V502.695Z" fill="url(#paint31_linear_2964_47702)"/>
<path d="M304.775 493.255C356.913 493.255 399.179 450.99 399.179 398.852C399.179 346.715 356.913 304.449 304.775 304.449V306.809C355.609 306.809 396.818 348.019 396.818 398.852C396.818 449.686 355.609 490.895 304.775 490.895V493.255Z" fill="url(#paint32_linear_2964_47702)"/>
<path d="M304.775 483.816C351.7 483.816 389.738 445.778 389.738 398.853C389.738 351.93 351.7 313.891 304.775 313.891V316.251C350.396 316.251 387.378 353.233 387.378 398.853C387.378 444.474 350.396 481.456 304.775 481.456V483.816Z" fill="url(#paint33_linear_2964_47702)"/>
<path d="M304.775 474.375C346.485 474.375 380.298 440.562 380.298 398.853C380.298 357.143 346.485 323.33 304.775 323.33V325.69C345.182 325.69 377.938 358.446 377.938 398.853C377.938 439.259 345.182 472.015 304.775 472.015V474.375Z" fill="url(#paint34_linear_2964_47702)"/>
<path d="M304.775 464.936C341.272 464.936 370.858 435.35 370.858 398.854C370.858 362.357 341.272 332.771 304.775 332.771V335.132C339.969 335.132 368.498 363.661 368.498 398.854C368.498 434.046 339.969 462.576 304.775 462.576V464.936Z" fill="url(#paint35_linear_2964_47702)"/>
<path d="M304.775 455.493C336.058 455.493 361.417 430.134 361.417 398.851C361.417 367.568 336.058 342.209 304.775 342.209V344.569C334.754 344.569 359.057 368.872 359.057 398.851C359.057 428.83 334.754 453.133 304.775 453.133V455.493Z" fill="url(#paint36_linear_2964_47702)"/>
<path d="M304.775 446.054C330.845 446.054 351.977 424.92 351.977 398.852C351.977 372.784 330.845 351.65 304.775 351.65V354.01C329.541 354.01 349.617 374.086 349.617 398.852C349.617 423.617 329.541 443.693 304.775 443.693V446.054Z" fill="url(#paint37_linear_2964_47702)"/>
<path d="M304.775 436.614C325.63 436.614 342.537 419.708 342.537 398.853C342.537 377.998 325.63 361.092 304.775 361.092V363.452C324.327 363.452 340.177 379.301 340.177 398.853C340.177 418.405 324.327 434.254 304.775 434.254V436.614Z" fill="url(#paint38_linear_2964_47702)"/>
<path d="M304.775 427.173C320.417 427.173 333.096 414.494 333.096 398.852C333.096 383.211 320.417 370.531 304.775 370.531V372.891C319.113 372.891 330.736 384.515 330.736 398.852C330.736 413.19 319.113 424.813 304.775 424.813V427.173Z" fill="url(#paint39_linear_2964_47702)"/>
<path d="M304.775 417.734C315.203 417.734 323.656 409.281 323.656 398.853C323.656 388.425 315.203 379.973 304.775 379.973V382.333C313.899 382.333 321.296 389.729 321.296 398.853C321.296 407.977 313.899 415.374 304.775 415.374V417.734Z" fill="url(#paint40_linear_2964_47702)"/>
<path d="M304.775 408.293C309.989 408.293 314.216 404.066 314.216 398.852C314.216 393.639 309.989 389.412 304.775 389.412V391.772C308.686 391.772 311.856 394.942 311.856 398.852C311.856 402.763 308.686 405.933 304.775 405.933V408.293Z" fill="url(#paint41_linear_2964_47702)"/>
</g>
<g opacity="0.95">
<path d="M304.983 238.367V240.727H144.498V238.367H304.983Z" fill="url(#paint42_linear_2964_47702)"/>
<path d="M304.983 247.809V250.169H144.498V247.809H304.983Z" fill="url(#paint43_linear_2964_47702)"/>
<path d="M304.983 257.248V259.608H144.498V257.248H304.983Z" fill="url(#paint44_linear_2964_47702)"/>
<path d="M304.983 266.689V269.05H144.498V266.689H304.983Z" fill="url(#paint45_linear_2964_47702)"/>
<path d="M304.983 276.127V278.487H144.498V276.127H304.983Z" fill="url(#paint46_linear_2964_47702)"/>
<path d="M304.983 285.568V287.928H144.498V285.568H304.983Z" fill="url(#paint47_linear_2964_47702)"/>
<path d="M304.983 295.008V297.368H144.498V295.008H304.983Z" fill="url(#paint48_linear_2964_47702)"/>
<path d="M304.983 304.449V306.809H144.498V304.449H304.983Z" fill="url(#paint49_linear_2964_47702)"/>
<path d="M304.983 313.891V316.251H144.498V313.891H304.983Z" fill="url(#paint50_linear_2964_47702)"/>
<path d="M304.983 323.33V325.69H144.498V323.33H304.983Z" fill="url(#paint51_linear_2964_47702)"/>
<path d="M304.983 332.771V335.132H144.498V332.771H304.983Z" fill="url(#paint52_linear_2964_47702)"/>
<path d="M304.983 342.209V344.569H144.498V342.209H304.983Z" fill="url(#paint53_linear_2964_47702)"/>
<path d="M304.983 351.65V354.01H144.498V351.65H304.983Z" fill="url(#paint54_linear_2964_47702)"/>
<path d="M304.983 361.092V363.452H144.498V361.092H304.983Z" fill="url(#paint55_linear_2964_47702)"/>
<path d="M304.983 370.531V372.891H144.498V370.531H304.983Z" fill="url(#paint56_linear_2964_47702)"/>
<path d="M304.983 379.973V382.333H144.498V379.973H304.983Z" fill="url(#paint57_linear_2964_47702)"/>
<path d="M304.983 389.412V391.772H144.498V389.412H304.983Z" fill="url(#paint58_linear_2964_47702)"/>
</g>
<g opacity="0.95">
<path d="M304.982 405.934V408.294H233V405.934H304.982Z" fill="url(#paint59_linear_2964_47702)"/>
<path d="M304.982 415.375V417.735H233V415.375H304.982Z" fill="url(#paint60_linear_2964_47702)"/>
<path d="M304.982 424.814V427.175H233V424.814H304.982Z" fill="url(#paint61_linear_2964_47702)"/>
<path d="M304.982 434.256V436.616H233V434.256H304.982Z" fill="url(#paint62_linear_2964_47702)"/>
<path d="M304.982 443.693V446.053H233V443.693H304.982Z" fill="url(#paint63_linear_2964_47702)"/>
<path d="M304.982 453.135V455.495H233V453.135H304.982Z" fill="url(#paint64_linear_2964_47702)"/>
<path d="M304.982 462.574V464.934H233V462.574H304.982Z" fill="url(#paint65_linear_2964_47702)"/>
<path d="M304.982 472.016V474.376H233V472.016H304.982Z" fill="url(#paint66_linear_2964_47702)"/>
<path d="M304.982 481.457V483.817H233V481.457H304.982Z" fill="url(#paint67_linear_2964_47702)"/>
<path d="M304.982 490.896V493.257H233V490.896H304.982Z" fill="url(#paint68_linear_2964_47702)"/>
<path d="M304.982 500.338V502.698H233V500.338H304.982Z" fill="url(#paint69_linear_2964_47702)"/>
<path d="M304.982 509.775V512.135H233V509.775H304.982Z" fill="url(#paint70_linear_2964_47702)"/>
<path d="M304.982 519.217V521.577H233V519.217H304.982Z" fill="url(#paint71_linear_2964_47702)"/>
<path d="M304.982 528.658V531.018H233V528.658H304.982Z" fill="url(#paint72_linear_2964_47702)"/>
<path d="M304.982 538.098V540.458H233V538.098H304.982Z" fill="url(#paint73_linear_2964_47702)"/>
<path d="M304.982 547.539V549.899H233V547.539H304.982Z" fill="url(#paint74_linear_2964_47702)"/>
<path d="M304.982 556.979V559.339H233V556.979H304.982Z" fill="url(#paint75_linear_2964_47702)"/>
</g>
<path opacity="0.2" d="M281.383 985.924C606.916 985.924 870.812 722.027 870.812 396.494C870.812 70.9611 606.916 -192.936 281.383 -192.936C-44.1503 -192.936 -308.047 70.9611 -308.047 396.494C-308.047 722.027 -44.1503 985.924 281.383 985.924Z" stroke="url(#paint76_linear_2964_47702)" stroke-width="1.18004"/>
<path opacity="0.2" d="M2142.89 -108.564C2142.89 121.17 1957.5 307.4 1728.81 307.4C1500.13 307.4 1314.73 121.17 1314.73 -108.564C1314.73 -338.297 1500.13 -524.527 1728.81 -524.527C1957.5 -524.527 2142.89 -338.297 2142.89 -108.564Z" stroke="url(#paint77_linear_2964_47702)" stroke-width="1.18004"/>
</g>
<rect x="100.539" y="-79.1074" width="1" height="730" fill="#9690A2" fill-opacity="0.08"/>
<rect x="420.539" y="-79.1074" width="1" height="730" fill="#9690A2" fill-opacity="0.08"/>
<rect x="740.539" y="-79.1074" width="1" height="730" fill="#9690A2" fill-opacity="0.08"/>
<rect x="1060.54" y="-79.1074" width="1" height="730" fill="#9690A2" fill-opacity="0.08"/>
<rect x="1340.54" y="-79.1074" width="1" height="730" fill="#9690A2" fill-opacity="0.08"/>
<mask id="path-96-inside-1_2964_47702" fill="white">
<path d="M161.609 929.281H949.089V930.658H161.609V929.281Z"/>
</mask>
<path d="M161.609 930.658H949.089V927.905H161.609V930.658Z" fill="#EBEBEB" mask="url(#path-96-inside-1_2964_47702)"/>
</g>
<defs>
<linearGradient id="paint0_linear_2964_47702" x1="286.103" y1="160.483" x2="119.51" y2="118.835" gradientUnits="userSpaceOnUse">
<stop stop-color="#FF6720"/>
<stop offset="1" stop-color="#F04438"/>
</linearGradient>
<linearGradient id="paint1_linear_2964_47702" x1="286.103" y1="160.484" x2="119.51" y2="118.836" gradientUnits="userSpaceOnUse">
<stop stop-color="#FF6720"/>
<stop offset="1" stop-color="#F04438"/>
</linearGradient>
<linearGradient id="paint2_linear_2964_47702" x1="286.103" y1="160.483" x2="119.51" y2="118.835" gradientUnits="userSpaceOnUse">
<stop stop-color="#FF6720"/>
<stop offset="1" stop-color="#F04438"/>
</linearGradient>
<linearGradient id="paint3_linear_2964_47702" x1="286.103" y1="160.485" x2="119.51" y2="118.836" gradientUnits="userSpaceOnUse">
<stop stop-color="#FF6720"/>
<stop offset="1" stop-color="#F04438"/>
</linearGradient>
<linearGradient id="paint4_linear_2964_47702" x1="286.103" y1="160.482" x2="119.51" y2="118.833" gradientUnits="userSpaceOnUse">
<stop stop-color="#FF6720"/>
<stop offset="1" stop-color="#F04438"/>
</linearGradient>
<linearGradient id="paint5_linear_2964_47702" x1="286.103" y1="160.483" x2="119.51" y2="118.835" gradientUnits="userSpaceOnUse">
<stop stop-color="#FF6720"/>
<stop offset="1" stop-color="#F04438"/>
</linearGradient>
<linearGradient id="paint6_linear_2964_47702" x1="286.103" y1="160.482" x2="119.51" y2="118.834" gradientUnits="userSpaceOnUse">
<stop stop-color="#FF6720"/>
<stop offset="1" stop-color="#F04438"/>
</linearGradient>
<linearGradient id="paint7_linear_2964_47702" x1="286.103" y1="160.483" x2="119.51" y2="118.835" gradientUnits="userSpaceOnUse">
<stop stop-color="#FF6720"/>
<stop offset="1" stop-color="#F04438"/>
</linearGradient>
<linearGradient id="paint8_linear_2964_47702" x1="286.103" y1="160.484" x2="119.51" y2="118.836" gradientUnits="userSpaceOnUse">
<stop stop-color="#FF6720"/>
<stop offset="1" stop-color="#F04438"/>
</linearGradient>
<linearGradient id="paint9_linear_2964_47702" x1="286.103" y1="160.483" x2="119.51" y2="118.835" gradientUnits="userSpaceOnUse">
<stop stop-color="#FF6720"/>
<stop offset="1" stop-color="#F04438"/>
</linearGradient>
<linearGradient id="paint10_linear_2964_47702" x1="286.103" y1="160.484" x2="119.51" y2="118.836" gradientUnits="userSpaceOnUse">
<stop stop-color="#FF6720"/>
<stop offset="1" stop-color="#F04438"/>
</linearGradient>
<linearGradient id="paint11_linear_2964_47702" x1="286.103" y1="160.482" x2="119.51" y2="118.833" gradientUnits="userSpaceOnUse">
<stop stop-color="#FF6720"/>
<stop offset="1" stop-color="#F04438"/>
</linearGradient>
<linearGradient id="paint12_linear_2964_47702" x1="286.103" y1="160.483" x2="119.51" y2="118.834" gradientUnits="userSpaceOnUse">
<stop stop-color="#FF6720"/>
<stop offset="1" stop-color="#F04438"/>
</linearGradient>
<linearGradient id="paint13_linear_2964_47702" x1="286.103" y1="160.484" x2="119.51" y2="118.835" gradientUnits="userSpaceOnUse">
<stop stop-color="#FF6720"/>
<stop offset="1" stop-color="#F04438"/>
</linearGradient>
<linearGradient id="paint14_linear_2964_47702" x1="286.103" y1="160.483" x2="119.51" y2="118.835" gradientUnits="userSpaceOnUse">
<stop stop-color="#FF6720"/>
<stop offset="1" stop-color="#F04438"/>
</linearGradient>
<linearGradient id="paint15_linear_2964_47702" x1="-0.648428" y1="-18.294" x2="139.884" y2="57.5188" gradientUnits="userSpaceOnUse">
<stop stop-color="#FF6720"/>
<stop offset="1" stop-color="#F04438"/>
</linearGradient>
<linearGradient id="paint16_linear_2964_47702" x1="-0.648429" y1="-18.2929" x2="139.884" y2="57.5199" gradientUnits="userSpaceOnUse">
<stop stop-color="#FF6720"/>
<stop offset="1" stop-color="#F04438"/>
</linearGradient>
<linearGradient id="paint17_linear_2964_47702" x1="-0.648429" y1="-18.2918" x2="139.884" y2="57.521" gradientUnits="userSpaceOnUse">
<stop stop-color="#FF6720"/>
<stop offset="1" stop-color="#F04438"/>
</linearGradient>
<linearGradient id="paint18_linear_2964_47702" x1="-0.648429" y1="-18.2926" x2="139.884" y2="57.5202" gradientUnits="userSpaceOnUse">
<stop stop-color="#FF6720"/>
<stop offset="1" stop-color="#F04438"/>
</linearGradient>
<linearGradient id="paint19_linear_2964_47702" x1="-0.64843" y1="-18.2915" x2="139.884" y2="57.5212" gradientUnits="userSpaceOnUse">
<stop stop-color="#FF6720"/>
<stop offset="1" stop-color="#F04438"/>
</linearGradient>
<linearGradient id="paint20_linear_2964_47702" x1="-0.64843" y1="-18.2944" x2="139.884" y2="57.5184" gradientUnits="userSpaceOnUse">
<stop stop-color="#FF6720"/>
<stop offset="1" stop-color="#F04438"/>
</linearGradient>
<linearGradient id="paint21_linear_2964_47702" x1="-0.648424" y1="-18.2933" x2="139.884" y2="57.5195" gradientUnits="userSpaceOnUse">
<stop stop-color="#FF6720"/>
<stop offset="1" stop-color="#F04438"/>
</linearGradient>
<linearGradient id="paint22_linear_2964_47702" x1="-0.648426" y1="-18.2922" x2="139.884" y2="57.5206" gradientUnits="userSpaceOnUse">
<stop stop-color="#FF6720"/>
<stop offset="1" stop-color="#F04438"/>
</linearGradient>
<linearGradient id="paint23_linear_2964_47702" x1="-0.648429" y1="-18.293" x2="139.884" y2="57.5198" gradientUnits="userSpaceOnUse">
<stop stop-color="#FF6720"/>
<stop offset="1" stop-color="#F04438"/>
</linearGradient>
<linearGradient id="paint24_linear_2964_47702" x1="293.184" y1="-16.5207" x2="376.48" y2="4.30345" gradientUnits="userSpaceOnUse">
<stop stop-color="#FF6720"/>
<stop offset="1" stop-color="#F04438"/>
</linearGradient>
<linearGradient id="paint25_linear_2964_47702" x1="465.261" y1="479.095" x2="276.454" y2="431.894" gradientUnits="userSpaceOnUse">
<stop stop-color="#FF6720"/>
<stop offset="1" stop-color="#F04438"/>
</linearGradient>
<linearGradient id="paint26_linear_2964_47702" x1="465.261" y1="479.096" x2="276.454" y2="431.895" gradientUnits="userSpaceOnUse">
<stop stop-color="#FF6720"/>
<stop offset="1" stop-color="#F04438"/>
</linearGradient>
<linearGradient id="paint27_linear_2964_47702" x1="465.261" y1="479.095" x2="276.454" y2="431.894" gradientUnits="userSpaceOnUse">
<stop stop-color="#FF6720"/>
<stop offset="1" stop-color="#F04438"/>
</linearGradient>
<linearGradient id="paint28_linear_2964_47702" x1="465.261" y1="479.096" x2="276.454" y2="431.895" gradientUnits="userSpaceOnUse">
<stop stop-color="#FF6720"/>
<stop offset="1" stop-color="#F04438"/>
</linearGradient>
<linearGradient id="paint29_linear_2964_47702" x1="465.261" y1="479.094" x2="276.454" y2="431.892" gradientUnits="userSpaceOnUse">
<stop stop-color="#FF6720"/>
<stop offset="1" stop-color="#F04438"/>
</linearGradient>
<linearGradient id="paint30_linear_2964_47702" x1="465.261" y1="479.095" x2="276.454" y2="431.893" gradientUnits="userSpaceOnUse">
<stop stop-color="#FF6720"/>
<stop offset="1" stop-color="#F04438"/>
</linearGradient>
<linearGradient id="paint31_linear_2964_47702" x1="465.261" y1="479.094" x2="276.454" y2="431.892" gradientUnits="userSpaceOnUse">
<stop stop-color="#FF6720"/>
<stop offset="1" stop-color="#F04438"/>
</linearGradient>
<linearGradient id="paint32_linear_2964_47702" x1="465.261" y1="479.095" x2="276.454" y2="431.893" gradientUnits="userSpaceOnUse">
<stop stop-color="#FF6720"/>
<stop offset="1" stop-color="#F04438"/>
</linearGradient>
<linearGradient id="paint33_linear_2964_47702" x1="465.261" y1="479.096" x2="276.454" y2="431.895" gradientUnits="userSpaceOnUse">
<stop stop-color="#FF6720"/>
<stop offset="1" stop-color="#F04438"/>
</linearGradient>
<linearGradient id="paint34_linear_2964_47702" x1="465.261" y1="479.095" x2="276.454" y2="431.894" gradientUnits="userSpaceOnUse">
<stop stop-color="#FF6720"/>
<stop offset="1" stop-color="#F04438"/>
</linearGradient>
<linearGradient id="paint35_linear_2964_47702" x1="465.261" y1="479.096" x2="276.454" y2="431.895" gradientUnits="userSpaceOnUse">
<stop stop-color="#FF6720"/>
<stop offset="1" stop-color="#F04438"/>
</linearGradient>
<linearGradient id="paint36_linear_2964_47702" x1="465.261" y1="479.094" x2="276.454" y2="431.892" gradientUnits="userSpaceOnUse">
<stop stop-color="#FF6720"/>
<stop offset="1" stop-color="#F04438"/>
</linearGradient>
<linearGradient id="paint37_linear_2964_47702" x1="465.261" y1="479.095" x2="276.454" y2="431.893" gradientUnits="userSpaceOnUse">
<stop stop-color="#FF6720"/>
<stop offset="1" stop-color="#F04438"/>
</linearGradient>
<linearGradient id="paint38_linear_2964_47702" x1="465.261" y1="479.096" x2="276.454" y2="431.894" gradientUnits="userSpaceOnUse">
<stop stop-color="#FF6720"/>
<stop offset="1" stop-color="#F04438"/>
</linearGradient>
<linearGradient id="paint39_linear_2964_47702" x1="465.261" y1="479.095" x2="276.454" y2="431.893" gradientUnits="userSpaceOnUse">
<stop stop-color="#FF6720"/>
<stop offset="1" stop-color="#F04438"/>
</linearGradient>
<linearGradient id="paint40_linear_2964_47702" x1="465.261" y1="479.096" x2="276.454" y2="431.894" gradientUnits="userSpaceOnUse">
<stop stop-color="#FF6720"/>
<stop offset="1" stop-color="#F04438"/>
</linearGradient>
<linearGradient id="paint41_linear_2964_47702" x1="465.261" y1="479.095" x2="276.454" y2="431.894" gradientUnits="userSpaceOnUse">
<stop stop-color="#FF6720"/>
<stop offset="1" stop-color="#F04438"/>
</linearGradient>
<linearGradient id="paint42_linear_2964_47702" x1="144.498" y1="276.718" x2="302.008" y2="359.109" gradientUnits="userSpaceOnUse">
<stop stop-color="#FF6720"/>
<stop offset="1" stop-color="#F04438"/>
</linearGradient>
<linearGradient id="paint43_linear_2964_47702" x1="144.498" y1="276.72" x2="302.008" y2="359.11" gradientUnits="userSpaceOnUse">
<stop stop-color="#FF6720"/>
<stop offset="1" stop-color="#F04438"/>
</linearGradient>
<linearGradient id="paint44_linear_2964_47702" x1="144.498" y1="276.719" x2="302.008" y2="359.109" gradientUnits="userSpaceOnUse">
<stop stop-color="#FF6720"/>
<stop offset="1" stop-color="#F04438"/>
</linearGradient>
<linearGradient id="paint45_linear_2964_47702" x1="144.498" y1="276.72" x2="302.008" y2="359.11" gradientUnits="userSpaceOnUse">
<stop stop-color="#FF6720"/>
<stop offset="1" stop-color="#F04438"/>
</linearGradient>
<linearGradient id="paint46_linear_2964_47702" x1="144.498" y1="276.717" x2="302.008" y2="359.107" gradientUnits="userSpaceOnUse">
<stop stop-color="#FF6720"/>
<stop offset="1" stop-color="#F04438"/>
</linearGradient>
<linearGradient id="paint47_linear_2964_47702" x1="144.498" y1="276.718" x2="302.008" y2="359.108" gradientUnits="userSpaceOnUse">
<stop stop-color="#FF6720"/>
<stop offset="1" stop-color="#F04438"/>
</linearGradient>
<linearGradient id="paint48_linear_2964_47702" x1="144.498" y1="276.717" x2="302.008" y2="359.108" gradientUnits="userSpaceOnUse">
<stop stop-color="#FF6720"/>
<stop offset="1" stop-color="#F04438"/>
</linearGradient>
<linearGradient id="paint49_linear_2964_47702" x1="144.498" y1="276.718" x2="302.008" y2="359.109" gradientUnits="userSpaceOnUse">
<stop stop-color="#FF6720"/>
<stop offset="1" stop-color="#F04438"/>
</linearGradient>
<linearGradient id="paint50_linear_2964_47702" x1="144.498" y1="276.719" x2="302.008" y2="359.11" gradientUnits="userSpaceOnUse">
<stop stop-color="#FF6720"/>
<stop offset="1" stop-color="#F04438"/>
</linearGradient>
<linearGradient id="paint51_linear_2964_47702" x1="144.498" y1="276.719" x2="302.008" y2="359.109" gradientUnits="userSpaceOnUse">
<stop stop-color="#FF6720"/>
<stop offset="1" stop-color="#F04438"/>
</linearGradient>
<linearGradient id="paint52_linear_2964_47702" x1="144.498" y1="276.72" x2="302.008" y2="359.11" gradientUnits="userSpaceOnUse">
<stop stop-color="#FF6720"/>
<stop offset="1" stop-color="#F04438"/>
</linearGradient>
<linearGradient id="paint53_linear_2964_47702" x1="144.498" y1="276.717" x2="302.008" y2="359.107" gradientUnits="userSpaceOnUse">
<stop stop-color="#FF6720"/>
<stop offset="1" stop-color="#F04438"/>
</linearGradient>
<linearGradient id="paint54_linear_2964_47702" x1="144.498" y1="276.718" x2="302.008" y2="359.108" gradientUnits="userSpaceOnUse">
<stop stop-color="#FF6720"/>
<stop offset="1" stop-color="#F04438"/>
</linearGradient>
<linearGradient id="paint55_linear_2964_47702" x1="144.498" y1="276.719" x2="302.008" y2="359.109" gradientUnits="userSpaceOnUse">
<stop stop-color="#FF6720"/>
<stop offset="1" stop-color="#F04438"/>
</linearGradient>
<linearGradient id="paint56_linear_2964_47702" x1="144.498" y1="276.718" x2="302.008" y2="359.108" gradientUnits="userSpaceOnUse">
<stop stop-color="#FF6720"/>
<stop offset="1" stop-color="#F04438"/>
</linearGradient>
<linearGradient id="paint57_linear_2964_47702" x1="144.498" y1="276.719" x2="302.008" y2="359.11" gradientUnits="userSpaceOnUse">
<stop stop-color="#FF6720"/>
<stop offset="1" stop-color="#F04438"/>
</linearGradient>
<linearGradient id="paint58_linear_2964_47702" x1="144.498" y1="276.718" x2="302.008" y2="359.109" gradientUnits="userSpaceOnUse">
<stop stop-color="#FF6720"/>
<stop offset="1" stop-color="#F04438"/>
</linearGradient>
<linearGradient id="paint59_linear_2964_47702" x1="233" y1="444.285" x2="318.284" y2="464.294" gradientUnits="userSpaceOnUse">
<stop stop-color="#FF6720"/>
<stop offset="1" stop-color="#F04438"/>
</linearGradient>
<linearGradient id="paint60_linear_2964_47702" x1="233" y1="444.286" x2="318.284" y2="464.295" gradientUnits="userSpaceOnUse">
<stop stop-color="#FF6720"/>
<stop offset="1" stop-color="#F04438"/>
</linearGradient>
<linearGradient id="paint61_linear_2964_47702" x1="233" y1="444.285" x2="318.284" y2="464.294" gradientUnits="userSpaceOnUse">
<stop stop-color="#FF6720"/>
<stop offset="1" stop-color="#F04438"/>
</linearGradient>
<linearGradient id="paint62_linear_2964_47702" x1="233" y1="444.286" x2="318.284" y2="464.295" gradientUnits="userSpaceOnUse">
<stop stop-color="#FF6720"/>
<stop offset="1" stop-color="#F04438"/>
</linearGradient>
<linearGradient id="paint63_linear_2964_47702" x1="233" y1="444.283" x2="318.284" y2="464.292" gradientUnits="userSpaceOnUse">
<stop stop-color="#FF6720"/>
<stop offset="1" stop-color="#F04438"/>
</linearGradient>
<linearGradient id="paint64_linear_2964_47702" x1="233" y1="444.284" x2="318.284" y2="464.293" gradientUnits="userSpaceOnUse">
<stop stop-color="#FF6720"/>
<stop offset="1" stop-color="#F04438"/>
</linearGradient>
<linearGradient id="paint65_linear_2964_47702" x1="233" y1="444.284" x2="318.284" y2="464.292" gradientUnits="userSpaceOnUse">
<stop stop-color="#FF6720"/>
<stop offset="1" stop-color="#F04438"/>
</linearGradient>
<linearGradient id="paint66_linear_2964_47702" x1="233" y1="444.285" x2="318.284" y2="464.293" gradientUnits="userSpaceOnUse">
<stop stop-color="#FF6720"/>
<stop offset="1" stop-color="#F04438"/>
</linearGradient>
<linearGradient id="paint67_linear_2964_47702" x1="233" y1="444.286" x2="318.284" y2="464.295" gradientUnits="userSpaceOnUse">
<stop stop-color="#FF6720"/>
<stop offset="1" stop-color="#F04438"/>
</linearGradient>
<linearGradient id="paint68_linear_2964_47702" x1="233" y1="444.285" x2="318.284" y2="464.294" gradientUnits="userSpaceOnUse">
<stop stop-color="#FF6720"/>
<stop offset="1" stop-color="#F04438"/>
</linearGradient>
<linearGradient id="paint69_linear_2964_47702" x1="233" y1="444.286" x2="318.284" y2="464.295" gradientUnits="userSpaceOnUse">
<stop stop-color="#FF6720"/>
<stop offset="1" stop-color="#F04438"/>
</linearGradient>
<linearGradient id="paint70_linear_2964_47702" x1="233" y1="444.283" x2="318.284" y2="464.292" gradientUnits="userSpaceOnUse">
<stop stop-color="#FF6720"/>
<stop offset="1" stop-color="#F04438"/>
</linearGradient>
<linearGradient id="paint71_linear_2964_47702" x1="233" y1="444.284" x2="318.284" y2="464.293" gradientUnits="userSpaceOnUse">
<stop stop-color="#FF6720"/>
<stop offset="1" stop-color="#F04438"/>
</linearGradient>
<linearGradient id="paint72_linear_2964_47702" x1="233" y1="444.285" x2="318.284" y2="464.294" gradientUnits="userSpaceOnUse">
<stop stop-color="#FF6720"/>
<stop offset="1" stop-color="#F04438"/>
</linearGradient>
<linearGradient id="paint73_linear_2964_47702" x1="233" y1="444.285" x2="318.284" y2="464.293" gradientUnits="userSpaceOnUse">
<stop stop-color="#FF6720"/>
<stop offset="1" stop-color="#F04438"/>
</linearGradient>
<linearGradient id="paint74_linear_2964_47702" x1="233" y1="444.286" x2="318.284" y2="464.294" gradientUnits="userSpaceOnUse">
<stop stop-color="#FF6720"/>
<stop offset="1" stop-color="#F04438"/>
</linearGradient>
<linearGradient id="paint75_linear_2964_47702" x1="233" y1="444.285" x2="318.284" y2="464.294" gradientUnits="userSpaceOnUse">
<stop stop-color="#FF6720"/>
<stop offset="1" stop-color="#F04438"/>
</linearGradient>
<linearGradient id="paint76_linear_2964_47702" x1="-13.6271" y1="986.514" x2="576.392" y2="-193.526" gradientUnits="userSpaceOnUse">
<stop stop-color="#FF6720"/>
<stop offset="1" stop-color="#F04438"/>
</linearGradient>
<linearGradient id="paint77_linear_2964_47702" x1="1521.47" y1="307.99" x2="1939.16" y2="-523.605" gradientUnits="userSpaceOnUse">
<stop stop-color="#FF6720"/>
<stop offset="1" stop-color="#F04438"/>
</linearGradient>
<clipPath id="clip0_2964_47702">
<rect width="1982.47" height="1005" fill="white" transform="translate(0.535156)"/>
</clipPath>
<clipPath id="clip1_2964_47702">
<rect width="1982.47" height="1275.62" fill="white" transform="translate(0.533203 -289.109)"/>
</clipPath>
</defs>
</svg>
